<svg width="74" height="60" viewBox="0 0 74 60" fill="none" xmlns="http://www.w3.org/2000/svg">
<path d="M70 34L74 34L74 26L70 26L70 34ZM1.17157 27.1716C-0.390524 28.7337 -0.390524 31.2663 1.17157 32.8284L26.6274 58.2843C28.1895 59.8464 30.7222 59.8464 32.2843 58.2843C33.8464 56.7222 33.8464 54.1895 32.2843 52.6274L9.65685 30L32.2843 7.37259C33.8464 5.81049 33.8464 3.27783 32.2843 1.71573C30.7222 0.153635 28.1895 0.153635 26.6274 1.71573L1.17157 27.1716ZM70 26L4 26L4 34L70 34L70 26Z" fill="black"/>
</svg>
